<svg xmlns="http://www.w3.org/2000/svg" width="20" height="20" viewBox="0 0 20 20">
    <path fill="#0284C6" fill-rule="nonzero" d="M14.357.015c-1.702 0-3.296.771-4.357 2.063A5.643 5.643 0 0 0 5.643.015 5.649 5.649 0 0 0 0 5.658c0 2.436 1.453 5.254 4.318 8.375 2.205 2.402 4.603 4.262 5.286 4.775l.396.298.396-.298c.683-.513 3.081-2.372 5.286-4.775C18.547 10.913 20 8.094 20 5.658A5.649 5.649 0 0 0 14.357.015zm.354 13.127c-1.814 1.975-3.765 3.573-4.711 4.309-.946-.736-2.897-2.334-4.71-4.31-2.598-2.83-3.971-5.417-3.971-7.483a4.329 4.329 0 0 1 4.324-4.324c1.569 0 3.017.855 3.78 2.232L10 4.606l.577-1.04a4.327 4.327 0 0 1 3.78-2.232 4.329 4.329 0 0 1 4.324 4.324c0 2.066-1.373 4.654-3.97 7.484z"/>
</svg>
